# xmcd
# 
# Track frame offsets:
#     225
#     20304
#     37465
#     57414
#     75215
#     92130
#     109163
#     122782
#     144374
#     161067
#     179295
#     199134
#     213922
#     233603
#     249041
#     269099
#     286733
# 
# Disc length: 4050
# 
# Revision: 1
# Processed by: cddbd v1.5.2PL0 Copyright (c) Steve Scherf et al.
# Submitted via: fre:ac v1.0.31
# 
DISCID=eb0fcf11
DTITLE=Various Artist - Duetos em Português
DYEAR=2007
DGENRE=Country
TTITLE0=Humanos - Rugas
TTITLE1=Rui Veloso e Nacy Vieira - Canção de alterne
TTITLE2=Tim e Mariza - Fado do encontro
TTITLE3=André Sardet e Luís Represas - Se eu disser
TTITLE4=Mafalda Veiga e Jorge Palma - Tatuagens
TTITLE5=Pólo Norte e Miguel Ângelo - Grito
TTITLE6=Clã e Sérgio Godinho - Espectáculo
TTITLE7=Ala dos Namorados e Sara Tavares - Solta-se o beijo
TTITLE8=Mesa e Rui Reininho - Luz vaga
TTITLE9=Teresa Salgueiro e José Carreras - Haja o que houver
TTITLE10=Luís Represas e Pablo Milanês - Feiticeira
TTITLE11=Katia Guerreiro e Ney Matogrosso - Lábios de mel
TTITLE12=Jorge Fernando e Ana Moura - Por um dia
TTITLE13=GNR e Isabel Silvestre - Pronúncia do norte
TTITLE14=General D e Sam - Black magic woman
TTITLE15=Silence4 e Sérgio Godinho - Sextos sentidos
TTITLE16=Ornatos Violeta e Gordon Grano - Capitão romance
EXTD=
EXTT0=HUMANOS
EXTT1=RUI VELOSO E NANCY VIEIRA
EXTT2=TIM E MARIZA
EXTT3=ANDRÉ SARDET E LUIS REPRESAS
EXTT4=MAFALDA VEIGA E JORGE PALMA
EXTT5=PÓLO NORTE E MIGUEL ÂNGELO
EXTT6=CLÃ E SÉRGIO GODINHO
EXTT7=ALA DOS NAMORADOS E SARA TAVARES
EXTT8=MESA E RUI REININHO
EXTT9=TERESA SALGUEIRO E JOSÉ CARRERAS
EXTT10=LUIS REPRESAS E PABLO MILANÊS
EXTT11=KATIA GUERREIRO E NEY MATOGROSSO
EXTT12=JORGE FERNANDO E ANA MOURA
EXTT13=GNR E ISABEL SILVESTRE
EXTT14=GENERAL D E SAM
EXTT15=SILENCE 4 E SÉRGIO GODINHO
EXTT16=OMATOS VIOLETA E GORDON GANO
PLAYORDER=
